# xmcd
# Track frame offsets:
# 150
# 18830
# 31517
# 44537
# 64047
# 78427
# 93455
# 101465
# 121097
#
# Disc length: 1792 seconds
# Revision: 0
# Processed by: cddbd v1.4PL0 Copyright (c) Steve Scherf et al.
# Submitted via: VisiTrax 2.9.5.180 - For more info visit www.synapsa.com
#
DISCID=5f06fe09
DTITLE=Kim Hermand - Kim Hermand
DYEAR=1980
DGENRE=blues
TTITLE0=Du er bare skøn
TTITLE1=Ga-Ga-Gu
TTITLE2=Venter på en ven
TTITLE3=Hund and kat
TTITLE4=En følsom figur
TTITLE5=Barsang
TTITLE6=Wa-Ba-Du-Ap
TTITLE7=Med dig i hånden
TTITLE8=Ga-Ga-Du II
EXTD=
EXTT0=
EXTT1=
EXTT2=
EXTT3=
EXTT4=
EXTT5=
EXTT6=
EXTT7=
EXTT8=
PLAYORDER=
